Coordinates
version=1
nRows=22
nColumns=24
inDegrees=yes

Units are S.I. units (second, meters, Newtons, ...)
Angles are in degrees.

endheader
time	pelvis_tilt	pelvis_list	pelvis_rotation	pelvis_tx	pelvis_ty	pelvis_tz	hip_flexion_r	hip_adduction_r	hip_rotation_r	knee_angle_r	ankle_angle_r	subtalar_angle_r	mtp_angle_r	hip_flexion_l	hip_adduction_l	hip_rotation_l	knee_angle_l	ankle_angle_l	subtalar_angle_l	mtp_angle_l	lumbar_extension	lumbar_bending	lumbar_rotation
      3.89500000	     -9.75694272	     12.95770435	     -1.68358559	     -0.20031543	     -0.04839865	      0.68314119	     20.72491051	    -16.68742679	      1.59987177	    -66.61038595	    -34.25627715	     -1.40267469	     49.57955489	     31.76550243	     15.57660696	      1.44301367	    -32.62151494	     10.73627269	     -7.53715932	    -20.25227200	      7.90320629	    -15.80300588	     -1.23973472
      3.90000000	     -9.64403704	     12.93369533	     -1.62358465	     -0.19295653	     -0.04671468	      0.68268151	     21.57833117	    -16.71926090	      1.58182356	    -67.53233269	    -33.13440531	     -2.03498036	     49.49068488	     30.84258758	     15.70101470	      1.77070714	    -32.13222381	     11.07183769	     -7.43702341	    -20.20373512	      7.90590932	    -15.77839415	     -1.37776222
      3.90500000	     -9.47663033	     12.87911957	     -1.59908615	     -0.18554482	     -0.04489042	      0.68222562	     22.36722321	    -16.71398007	      1.52873609	    -68.40278715	    -32.07879720	     -2.79981622	     48.42414031	     29.82024705	     15.80832459	      2.15727609	    -31.56020863	     11.27509582	     -7.59888097	    -20.20652292	      7.86553753	    -15.70699890	     -1.46734658
      3.91000000	     -9.34616505	     12.79176213	     -1.54524161	     -0.17824498	     -0.04315182	      0.68175149	     23.18145602	    -16.66953652	      1.46899108	    -69.20881053	    -31.09739711	     -3.51701073	     47.42007134	     28.85643277	     15.87411442	      2.53402961	    -31.02036091	     11.48254123	     -7.68695816	    -20.15648494	      7.83626603	    -15.60509616	     -1.61430416
      3.91500000	     -9.22991868	     12.74906128	     -1.48068530	     -0.17094155	     -0.04145080	      0.68123128	     24.00226920	    -16.68200532	      1.41542589	    -69.92302177	    -30.33379980	     -4.36547148	     46.73941336	     27.89366933	     15.98759493	      2.92815732	    -30.43781687	     11.63861046	     -7.83159292	    -20.15702739	      7.82323890	    -15.54359491	     -1.77120535
      3.92000000	     -9.10277083	     12.62873054	     -1.43243784	     -0.16364430	     -0.03967682	      0.68068488	     24.78430737	    -16.59578300	      1.33504558	    -70.54552726	    -29.78820190	     -5.37487257	     45.68807807	     26.89427403	     16.03264082	      3.39542264	    -29.81540425	     11.73247838	     -8.16814130	    -20.27385577	      7.79707164	    -15.38534657	     -1.89783886
      3.92500000	     -8.96959830	     12.46304838	     -1.34925540	     -0.15638823	     -0.03796932	      0.68020928	     25.52834129	    -16.45466729	      1.20693778	    -71.14649436	    -29.16492219	     -6.24176085	     43.82335345	     25.90554177	     16.00922497	      3.82074090	    -29.25333519	     12.04984152	     -8.24429228	    -20.61396740	      7.74186545	    -15.19827480	     -2.08551440
      3.93000000	     -8.86305659	     12.36672015	     -1.24827972	     -0.14910032	     -0.03629174	      0.67962356	     26.28275880	    -16.41077153	      1.06506833	    -71.62739690	    -28.86322048	     -7.45897383	     42.63651977	     24.91765901	     16.07511361	      4.27951457	    -28.61263407	     12.20847495	     -8.52787802	    -21.03985689	      7.72617991	    -15.07249775	     -2.28897570
      3.93500000	     -8.79289303	     12.31932415	     -1.19151686	     -0.14189440	     -0.03469546	      0.67899624	     27.10414562	    -16.38671326	      1.03080901	    -72.03415622	    -28.78730841	     -8.71712145	     41.83599796	     23.95379392	     16.18991189	      4.81340367	    -27.91026179	     12.18940032	     -8.98898524	    -21.30951431	      7.74963867	    -14.97651685	     -2.41509205
      3.94000000	     -8.65556732	     12.13134850	     -1.04562872	     -0.13467768	     -0.03304789	      0.67843182	     27.75071856	    -16.25133875	      0.76530918	    -72.38464624	    -28.60504146	    -10.09886720	     39.92172642	     22.93327069	     16.14740014	      5.29574505	    -27.31220813	     12.50873919	     -9.02437289	    -21.79603516	      7.66386007	    -14.76504437	     -2.69377667
      3.94500000	     -8.56820331	     12.04580408	     -0.94108483	     -0.12751833	     -0.03152436	      0.67780257	     28.49295814	    -16.19844727	      0.63368874	    -72.67875364	    -28.58910472	    -11.43551567	     38.40200087	     21.94303826	     16.21470773	      5.87748585	    -26.63162318	     12.66226053	     -9.27094016	    -22.27883830	      7.64116365	    -14.63936255	     -2.89442831
      3.95000000	     -8.51565582	     11.99822537	     -0.86475137	     -0.12034910	     -0.03006255	      0.67713790	     29.25740038	    -16.16640400	      0.56609701	    -72.86828808	    -28.63158366	    -12.81976098	     37.48306018	     20.97933402	     16.30963024	      6.41292487	    -25.88634085	     12.57356463	     -9.73134226	    -22.53033909	      7.66976938	    -14.53398971	     -3.05579501
      3.95500000	     -8.38346006	     11.81924118	     -0.71385882	     -0.11324418	     -0.02858806	      0.67658804	     29.85925960	    -16.02654595	      0.29231963	    -73.03657233	    -28.45678706	    -14.14972560	     35.24213594	     19.96092900	     16.24525511	      6.91668982	    -25.26390137	     12.87348299	     -9.72506899	    -22.96765584	      7.56484326	    -14.32857585	     -3.35300463
      3.96000000	     -8.30475072	     11.73004439	     -0.59043387	     -0.10613717	     -0.02723376	      0.67596112	     30.53110375	    -15.96707279	      0.12170970	    -73.12651586	    -28.32650188	    -15.41886303	     33.60155545	     18.97930270	     16.27898920	      7.46955461	    -24.55993558	     12.96421052	    -10.01416683	    -23.45414558	      7.53270911	    -14.19790310	     -3.59330567
      3.96500000	     -8.23286277	     11.65130729	     -0.46235304	     -0.09902079	     -0.02593886	      0.67532687	     31.17818056	    -15.92510668	     -0.06172408	    -73.13398249	    -28.12684709	    -16.65000828	     32.14894885	     18.01108260	     16.31079469	      7.95437327	    -23.84419362	     12.97453298	    -10.36796699	    -23.90457211	      7.50854248	    -14.07363300	     -3.83257127
      3.97000000	     -8.15153593	     11.46802297	     -0.37628149	     -0.09199987	     -0.02470684	      0.67479323	     31.79949850	    -15.72223185	     -0.22786893	    -73.10975307	    -27.69239131	    -17.52591704	     29.99838637	     17.06161468	     16.20790436	      8.45126345	    -23.19647540	     13.23423102	    -10.57617963	    -24.67464006	      7.45735190	    -13.83146537	     -4.06629828
      3.97500000	     -8.08003912	     11.33405462	     -0.26369787	     -0.08497964	     -0.02356481	      0.67420579	     32.40592309	    -15.59750749	     -0.40728162	    -72.99960738	    -27.26894490	    -18.40195392	     28.31752033	     16.12145951	     16.16303990	      8.97685990	    -22.53642350	     13.42151761	    -10.86368413	    -25.49563424	      7.41159898	    -13.64563567	     -4.31984286
      3.98000000	     -8.01856930	     11.19459206	     -0.15729736	     -0.07800058	     -0.02252351	      0.67363833	     33.00707462	    -15.45852925	     -0.57467356	    -72.82644527	    -26.76305186	    -19.12253963	     26.76294255	     15.20593969	     16.10133457	      9.49350414	    -21.89119857	     13.60252126	    -11.13869978	    -26.27964589	      7.36929385	    -13.44970450	     -4.56951375
      3.98500000	     -7.96572528	     11.04035268	     -0.05818570	     -0.07106284	     -0.02157202	      0.67308526	     33.59656870	    -15.29589262	     -0.73405150	    -72.58130937	    -26.19828017	    -19.69470540	     25.36683559	     14.31625363	     16.01490687	     10.00480405	    -21.26807590	     13.77194986	    -11.39952844	    -26.97883564	      7.32823477	    -13.23586689	     -4.81740299
      3.99000000	     -7.94095112	     10.88415147	      0.07909122	     -0.06415469	     -0.02071738	      0.67245830	     34.18129735	    -15.15800097	     -0.91932232	    -72.24015624	    -25.73325524	    -20.25999913	     24.56935757	     13.45990782	     15.93435823	     10.57619821	    -20.64895821	     13.76928040	    -11.73517431	    -27.29446164	      7.30581631	    -13.02340430	     -5.09602760
      3.99500000	     -7.89594027	     10.69021738	      0.12485906	     -0.05730478	     -0.01996249	      0.67203931	     34.75436308	    -14.90424518	     -1.02938150	    -71.87771807	    -24.97909215	    -20.42924688	     23.17168620	     12.62476645	     15.76815560	     10.99913443	    -20.08338773	     13.99880256	    -11.87954453	    -27.84281591	      7.26517789	    -12.76007851	     -5.30934743
      4.00000000	     -7.88773885	     10.46894962	      0.28268403	     -0.05048189	     -0.01927490	      0.67142735	     35.29389475	    -14.70279782	     -1.24023495	    -71.38713544	    -24.44182323	    -20.66560566	     22.74208580	     11.82700071	     15.60146358	     11.55140513	    -19.53464382	     14.05125996	    -12.11504930	    -28.03829507	      7.24034893	    -12.48063146	     -5.63634138
